# xmcd
#
# Track frame offsets:
#       150
#       2395
#       17103
#       34740
#       50153
#       65503
#       85204
#       104275
#       118911
#       121981
#       137998
#       161301
#       188616
#       208647
#       234810
#       247397
#       264644
#
# Disc length: 3702 seconds
#
# Revision: 0
# Processed by: cddbd v1.5.2PL0 Copyright (c) Steve Scherf et al.
# Submitted via: WaveLab 6.00a
#
DISCID=e90e7411
DTITLE=copyright shakalaka - lies about love and lewdness
DYEAR=2011
DGENRE=Blues Rock
TTITLE0=Houseannouncer
TTITLE1=Red Cadillac
TTITLE2=Plumb
TTITLE3=Sooner or Later
TTITLE4=Lies about Love and Lewdness
TTITLE5=Miss Ery
TTITLE6=Watcha gonna do
TTITLE7=Corner of my Life
TTITLE8=Too Late for my Date (original)
TTITLE9=Too Late for my Date (live)
TTITLE10=Try to Make Her
TTITLE11=I und Du
TTITLE12=Sosco
TTITLE13=Room Full of Laughter
TTITLE14=All the Time
TTITLE15=bonus Plumb
TTITLE16=bonus Corner of My Life
EXTD=
EXTT0=
EXTT1=
EXTT2=
EXTT3=
EXTT4=
EXTT5=
EXTT6=
EXTT7=
EXTT8=
EXTT9=
EXTT10=
EXTT11=
EXTT12=
EXTT13=
EXTT14=
EXTT15=
EXTT16=
PLAYORDER=
